<?xml version="1.0" encoding="utf-8"?>
<!-- Generator: Adobe Illustrator 25.2.0, SVG Export Plug-In . SVG Version: 6.00 Build 0)  -->
<svg version="1.1" id="Ebene_1" xmlns="http://www.w3.org/2000/svg" xmlns:xlink="http://www.w3.org/1999/xlink" x="0px" y="0px"
	 viewBox="0 0 666 101" style="enable-background:new 0 0 666 101;" xml:space="preserve">
<style type="text/css">
	.st0{filter:url(#Adobe_OpacityMaskFilter);}
	.st1{fill-rule:evenodd;clip-rule:evenodd;fill:#FFFFFF;}
	.st2{mask:url(#mask-2_1_);fill-rule:evenodd;clip-rule:evenodd;fill:#017DDD;}
</style>
<g id="logo.com-drk">
	<g id="Group-36">
		<g id="Group-3" transform="translate(0.000000, 0.481900)">
			<g id="Clip-2">
			</g>
			<defs>
				<filter id="Adobe_OpacityMaskFilter" filterUnits="userSpaceOnUse" x="1" y="1.5" width="98" height="98">
					<feColorMatrix  type="matrix" values="1 0 0 0 0  0 1 0 0 0  0 0 1 0 0  0 0 0 1 0"/>
				</filter>
			</defs>
			<mask maskUnits="userSpaceOnUse" x="1" y="1.5" width="98" height="98" id="mask-2_1_">
				<g class="st0">
					<polygon id="path-1_1_" class="st1" points="0,0.5 99.5,0.5 99.5,100 0,100 					"/>
				</g>
			</mask>
			<path id="Rectangle" class="st2" d="M9,1.5h82c4.4,0,8,3.6,8,8v82c0,4.4-3.6,8-8,8H9c-4.4,0-8-3.6-8-8v-82C1,5.1,4.6,1.5,9,1.5z"
				/>
		</g>
		<path id="Fill-4" class="st1" d="M60,83.6c-2.8,1.5-6.4,2.4-8.5,2.6c-8.4,0.7-16.8-1.5-22.6-7.1c-5.7-6-6.9-14-1.7-20.6
			c4.8-6.1,12.6-8.8,20.7-9.1c4.5-0.2,19.7,1.6,15.2,8.9c-3.6,6-13.5,0-19.2,1.9c-6.4,2.1-8.2,10.6-2.2,14.2
			c4.4,2.6,10.7,2.4,14.9-0.3c6-3.9,17.2-22.2,24.4-13.5C82.4,62.4,65.5,80.6,60,83.6 M17.8,36.2c-0.6-3,0.2-6.4,3.2-6
			c2.6,0.4,3.5,4.1,4,6.7c0.4,2.2,5.8,17.8,3,17.3C25.3,53.6,18.4,39.3,17.8,36.2 M32.2,18.7c4-3.4,5.9,2.4,6.4,5.3
			c0.4,2.8,5.5,24,0.1,23.6c-4.1-0.3-6.9-18.3-7.2-21.1C31.1,24.3,30.2,20.4,32.2,18.7 M52.8,12.7c3.4,0.7,2.5,7.7,2.4,10.3
			c0,2.8,0.3,23.7-4.1,23.1c-4.5-0.6-3.5-21.4-3.7-24.7C47.6,18,48.1,11.8,52.8,12.7 M63.2,27.7c0.4-2.1,0.8-6,3.2-6.9
			c4.7-1.9,4.6,4,4.1,6.8c-0.5,2.7-4.2,23.8-8.9,21.8C57.9,47.9,62.6,30.4,63.2,27.7"/>
		<path id="Fill-6" class="st1" d="M124.9,40c1.9-3.4,4.5-6,7.9-7.9c3.3-1.9,7.1-2.8,11.2-2.8c4.8,0,9.1,1.2,12.7,3.7
			c3.6,2.5,6.2,5.9,7.6,10.3h-10c-1-2.1-2.4-3.6-4.2-4.7c-1.8-1-3.9-1.5-6.2-1.5c-2.5,0-4.8,0.6-6.7,1.8c-2,1.2-3.5,2.8-4.6,5
			c-1.1,2.2-1.6,4.7-1.6,7.6c0,2.9,0.5,5.4,1.6,7.5c1.1,2.2,2.6,3.8,4.6,5c2,1.2,4.2,1.8,6.7,1.8c2.4,0,4.4-0.5,6.2-1.6
			c1.8-1.1,3.2-2.6,4.2-4.7h10c-1.4,4.4-4,7.9-7.6,10.3c-3.6,2.5-7.9,3.7-12.7,3.7c-4.1,0-7.9-0.9-11.2-2.8c-3.3-1.9-6-4.5-7.9-7.8
			c-1.9-3.3-2.9-7.2-2.9-11.4C122,47.2,123,43.4,124.9,40"/>
		<path id="Fill-8" class="st1" d="M189,65c1.4-0.8,2.5-1.9,3.3-3.4s1.2-3.4,1.2-5.6c0-3.3-0.9-5.8-2.6-7.5
			c-1.7-1.8-3.8-2.6-6.3-2.6c-2.5,0-4.6,0.9-6.2,2.6s-2.5,4.3-2.5,7.5c0,3.3,0.8,5.8,2.4,7.5c1.6,1.8,3.7,2.6,6.2,2.6
			C186.1,66.2,187.6,65.8,189,65 M175.6,71.5c-2.6-1.5-4.7-3.5-6.2-6.2c-1.5-2.7-2.3-5.8-2.3-9.3c0-3.5,0.8-6.6,2.3-9.3
			c1.6-2.7,3.7-4.8,6.4-6.2c2.7-1.5,5.7-2.2,9-2.2c3.3,0,6.3,0.7,9,2.2c2.7,1.5,4.8,3.5,6.4,6.2c1.6,2.7,2.3,5.8,2.3,9.3
			c0,3.5-0.8,6.6-2.4,9.3c-1.6,2.7-3.7,4.8-6.4,6.2c-2.7,1.5-5.7,2.2-9.1,2.2C181.2,73.7,178.2,73,175.6,71.5"/>
		<path id="Fill-10" class="st1" d="M235.3,42.2c2.5,2.6,3.8,6.2,3.8,10.8v20.2h-8.7v-19c0-2.7-0.7-4.8-2-6.3
			c-1.4-1.5-3.2-2.2-5.6-2.2c-2.4,0-4.3,0.7-5.7,2.2c-1.4,1.5-2.1,3.6-2.1,6.3v19h-8.7V38.8h8.7v4.3c1.2-1.5,2.6-2.7,4.4-3.5
			c1.8-0.8,3.8-1.3,5.9-1.3C229.5,38.3,232.8,39.6,235.3,42.2"/>
		<path id="Fill-12" class="st1" d="M244.8,46.7c1.4-2.7,3.5-4.7,6-6.2c2.6-1.5,5.5-2.2,8.8-2.2c4.3,0,7.8,1.1,10.6,3.2
			c2.8,2.1,4.7,5.1,5.6,9h-9.4c-0.5-1.5-1.3-2.7-2.5-3.5c-1.2-0.8-2.6-1.3-4.4-1.3c-2.5,0-4.4,0.9-5.9,2.7c-1.4,1.8-2.2,4.3-2.2,7.7
			c0,3.3,0.7,5.8,2.2,7.6c1.4,1.8,3.4,2.7,5.9,2.7c3.5,0,5.8-1.6,6.9-4.7h9.4c-1,3.7-2.8,6.7-5.6,8.9c-2.8,2.2-6.3,3.3-10.5,3.3
			c-3.3,0-6.2-0.7-8.8-2.2c-2.6-1.5-4.6-3.5-6-6.2c-1.4-2.7-2.2-5.8-2.2-9.3C242.6,52.4,243.3,49.3,244.8,46.7"/>
		<path id="Fill-14" class="st1" d="M292.8,39.9c1.8-1,3.9-1.5,6.2-1.5v9.1h-2.3c-2.7,0-4.8,0.6-6.2,1.9c-1.4,1.3-2.1,3.5-2.1,6.7
			v17.1h-8.7V38.8h8.7v5.3C289.5,42.3,291,40.9,292.8,39.9"/>
		<path id="Fill-16" class="st1" d="M325.2,52.8c0-2.2-0.8-4-2.4-5.4c-1.6-1.3-3.5-2-5.8-2c-2.1,0-4,0.7-5.4,2
			c-1.5,1.3-2.4,3.1-2.7,5.4H325.2z M334,58.6h-25.1c0.2,2.5,1.1,4.4,2.6,5.8c1.5,1.4,3.4,2.1,5.6,2.1c3.2,0,5.5-1.4,6.9-4.2h9.4
			c-1,3.3-2.9,6-5.7,8.2c-2.8,2.1-6.3,3.2-10.4,3.2c-3.3,0-6.3-0.7-8.9-2.2c-2.6-1.5-4.7-3.5-6.1-6.2c-1.5-2.7-2.2-5.8-2.2-9.3
			c0-3.6,0.7-6.7,2.2-9.4c1.4-2.7,3.5-4.8,6.1-6.2c2.6-1.4,5.6-2.2,9-2.2c3.3,0,6.2,0.7,8.8,2.1c2.6,1.4,4.6,3.4,6,6
			c1.4,2.6,2.1,5.5,2.1,8.9C334.2,56.5,334.1,57.6,334,58.6L334,58.6z"/>
		<path id="Fill-18" class="st1" d="M348.1,46v16.6c0,1.2,0.3,2,0.8,2.5c0.6,0.5,1.5,0.8,2.8,0.8h4v7.3h-5.5c-7.3,0-11-3.6-11-10.7
			V46h-4.1v-7.1h4.1v-8.5h8.7v8.5h7.7V46H348.1z"/>
		<path id="Fill-20" class="st1" d="M382.6,52.8c0-2.2-0.8-4-2.4-5.4c-1.6-1.3-3.5-2-5.8-2c-2.1,0-4,0.7-5.4,2
			c-1.5,1.3-2.4,3.1-2.7,5.4H382.6z M391.3,58.6h-25.1c0.2,2.5,1.1,4.4,2.6,5.8c1.5,1.4,3.4,2.1,5.6,2.1c3.2,0,5.5-1.4,6.9-4.2h9.4
			c-1,3.3-2.9,6-5.7,8.2c-2.8,2.1-6.3,3.2-10.4,3.2c-3.3,0-6.3-0.7-8.9-2.2c-2.6-1.5-4.7-3.5-6.1-6.2c-1.5-2.7-2.2-5.8-2.2-9.3
			c0-3.6,0.7-6.7,2.2-9.4c1.4-2.7,3.5-4.8,6.1-6.2c2.6-1.4,5.6-2.2,9-2.2c3.3,0,6.2,0.7,8.8,2.1c2.6,1.4,4.6,3.4,6,6
			c1.4,2.6,2.1,5.5,2.1,8.9C391.5,56.5,391.5,57.6,391.3,58.6L391.3,58.6z"/>
		<path id="Fill-22" class="st1" d="M396.2,40c1.9-3.4,4.5-6,7.9-7.9c3.3-1.9,7.1-2.8,11.2-2.8c4.8,0,9.1,1.2,12.7,3.7
			c3.6,2.5,6.2,5.9,7.6,10.3h-10c-1-2.1-2.4-3.6-4.2-4.7c-1.8-1-3.9-1.5-6.2-1.5c-2.5,0-4.8,0.6-6.7,1.8c-2,1.2-3.5,2.8-4.6,5
			c-1.1,2.2-1.6,4.7-1.6,7.6c0,2.9,0.5,5.4,1.6,7.5s2.6,3.8,4.6,5c2,1.2,4.2,1.8,6.7,1.8c2.4,0,4.4-0.5,6.2-1.6
			c1.8-1.1,3.2-2.6,4.2-4.7h10c-1.4,4.4-4,7.9-7.6,10.3c-3.6,2.5-7.9,3.7-12.7,3.7c-4.1,0-7.9-0.9-11.2-2.8c-3.3-1.9-6-4.5-7.9-7.8
			c-1.9-3.3-2.9-7.2-2.9-11.4C393.3,47.2,394.2,43.4,396.2,40"/>
		<polygon id="Fill-24" class="st1" points="487.7,29.9 487.7,73.2 479,73.2 479,45 467.4,73.2 460.9,73.2 449.2,45 449.2,73.2 
			440.5,73.2 440.5,29.9 450.4,29.9 464.1,62.1 477.9,29.9 		"/>
		<path id="Fill-26" class="st1" d="M500.6,72.1c-2.4-1-4.3-2.5-5.7-4.5c-1.4-1.9-2.1-4.2-2.2-6.9h9.3c0.1,1.8,0.8,3.2,1.9,4.2
			c1.1,1,2.7,1.6,4.7,1.6c2,0,3.6-0.5,4.8-1.5c1.2-1,1.7-2.2,1.7-3.8c0-1.3-0.4-2.3-1.2-3.2c-0.8-0.8-1.8-1.5-2.9-2
			c-1.2-0.5-2.8-1-4.9-1.6c-2.8-0.8-5.1-1.6-6.9-2.4c-1.8-0.8-3.3-2-4.5-3.7c-1.3-1.6-1.9-3.8-1.9-6.5c0-2.6,0.6-4.8,1.9-6.7
			c1.3-1.9,3.1-3.4,5.4-4.4c2.3-1,5-1.5,7.9-1.5c4.5,0,8.1,1.1,10.9,3.3c2.8,2.2,4.3,5.2,4.6,9.1H514c-0.1-1.5-0.7-2.7-1.9-3.7
			c-1.2-1-2.7-1.5-4.7-1.5c-1.7,0-3,0.4-4.1,1.3c-1,0.9-1.5,2.1-1.5,3.8c0,1.2,0.4,2.1,1.1,2.9c0.8,0.8,1.7,1.4,2.9,1.9
			c1.1,0.5,2.7,1,4.8,1.6c2.8,0.8,5.1,1.7,6.9,2.5c1.8,0.8,3.3,2.1,4.6,3.7c1.3,1.7,1.9,3.8,1.9,6.5c0,2.3-0.6,4.5-1.8,6.4
			c-1.2,2-3,3.6-5.3,4.7s-5.1,1.8-8.2,1.8C505.7,73.6,503,73.1,500.6,72.1"/>
		<path id="Fill-28" class="st1" d="M528.2,72.5c-0.6-0.6-0.9-1.4-0.9-2.3c0-0.9,0.3-1.7,0.9-2.3c0.6-0.6,1.4-0.9,2.3-0.9
			c0.9,0,1.6,0.3,2.2,0.9c0.6,0.6,0.9,1.4,0.9,2.3c0,0.9-0.3,1.7-0.9,2.3c-0.6,0.6-1.3,0.9-2.2,0.9
			C529.6,73.5,528.8,73.2,528.2,72.5"/>
		<path id="Fill-30" class="st1" d="M538.7,47c1.4-2.6,3.3-4.7,5.8-6.1c2.5-1.4,5.3-2.1,8.5-2.1c4.2,0,7.6,1,10.3,3.1
			c2.7,2.1,4.5,4.9,5.2,8.4h-4.7c-0.6-2.4-1.8-4.3-3.8-5.7c-1.9-1.4-4.3-2.1-7.2-2.1c-2.3,0-4.3,0.5-6.1,1.5c-1.8,1-3.3,2.6-4.3,4.6
			c-1.1,2-1.6,4.6-1.6,7.5c0,3,0.5,5.5,1.6,7.6c1.1,2.1,2.5,3.6,4.3,4.7c1.8,1,3.9,1.6,6.1,1.6c2.9,0,5.2-0.7,7.2-2.1
			s3.2-3.3,3.8-5.8h4.7c-0.8,3.5-2.5,6.3-5.3,8.4c-2.7,2.1-6.2,3.2-10.3,3.2c-3.2,0-6-0.7-8.5-2.1c-2.5-1.4-4.4-3.5-5.8-6.1
			c-1.4-2.6-2.1-5.7-2.1-9.2C536.6,52.7,537.3,49.7,538.7,47"/>
		<path id="Fill-32" class="st1" d="M595.1,68.4c1.9-1,3.4-2.5,4.6-4.6c1.2-2,1.8-4.6,1.8-7.5c0-3-0.6-5.5-1.7-7.5
			c-1.2-2-2.7-3.6-4.6-4.6c-1.9-1-4-1.5-6.2-1.5c-2.2,0-4.3,0.5-6.2,1.5c-1.9,1-3.4,2.5-4.6,4.6c-1.1,2-1.7,4.6-1.7,7.5
			c0,3,0.6,5.5,1.7,7.5c1.1,2,2.6,3.6,4.5,4.6c1.9,1,3.9,1.5,6.2,1.5C591.1,69.9,593.2,69.4,595.1,68.4 M580.3,71.5
			c-2.5-1.4-4.5-3.5-6-6.1c-1.5-2.6-2.2-5.7-2.2-9.2c0-3.5,0.7-6.6,2.2-9.2c1.5-2.6,3.5-4.7,6.1-6.1c2.6-1.4,5.4-2.1,8.6-2.1
			c3.2,0,6.1,0.7,8.6,2.1c2.6,1.4,4.6,3.5,6.1,6.1c1.5,2.6,2.2,5.7,2.2,9.2c0,3.5-0.7,6.5-2.2,9.2c-1.5,2.6-3.5,4.7-6.1,6.1
			c-2.6,1.4-5.5,2.1-8.7,2.1C585.7,73.7,582.8,73,580.3,71.5"/>
		<path id="Fill-34" class="st1" d="M661.4,42.4c2.5,2.5,3.8,6.1,3.8,10.9v19.8h-4.3V53.8c0-3.7-0.9-6.5-2.7-8.4
			c-1.8-1.9-4.2-2.9-7.3-2.9c-3.2,0-5.7,1.1-7.6,3.2c-1.9,2.1-2.9,5.2-2.9,9.2v18.4h-4.3V53.8c0-3.7-0.9-6.5-2.7-8.4
			c-1.8-1.9-4.2-2.9-7.3-2.9c-3.2,0-5.7,1.1-7.6,3.2c-1.9,2.1-2.9,5.2-2.9,9.2v18.4h-4.3V39.3h4.3v5.8c1.1-2.1,2.6-3.7,4.6-4.8
			c2-1.1,4.2-1.6,6.6-1.6c2.9,0,5.5,0.7,7.7,2.1c2.2,1.4,3.8,3.5,4.8,6.2c0.9-2.7,2.5-4.7,4.7-6.2s4.7-2.1,7.5-2.1
			C655.7,38.7,658.9,39.9,661.4,42.4"/>
	</g>
</g>
</svg>
